<?xml version="1.0" encoding="UTF-8"?>
<svg width="30px" height="30px" viewBox="0 0 30 30" version="1.1" xmlns="http://www.w3.org/2000/svg" xmlns:xlink="http://www.w3.org/1999/xlink">
    <title>F270CD18-0D9C-4865-9663-9ADDF4628699</title>
    <defs>
        <polygon id="path-1" points="1.99335548e-05 0.0275774336 29.972392 0.0275774336 29.972392 29.9668142 1.99335548e-05 29.9668142"></polygon>
    </defs>
    <g id="Design-V2" stroke="none" stroke-width="1" fill="none" fill-rule="evenodd">
        <g id="MathsSense-DesignV2" transform="translate(-712.000000, -1419.000000)">
            <g id="body" transform="translate(-9.000000, 761.000000)">
                <g id="download-icon-copy" transform="translate(709.000000, 651.000000)">
                    <g id="download-icon" transform="translate(12.000000, 7.000000)">
                        <g id="Group-3">
                            <mask id="mask-2" fill="white">
                                <use xlink:href="#path-1"></use>
                            </mask>
                            <g id="Clip-2"></g>
                            <path d="M14.9861993,26.9450011 C8.38031894,26.9450011 3.02516944,21.5957754 3.02516944,14.9972024 C3.02516944,8.39859624 8.38031894,3.04940376 14.9861993,3.04940376 C21.5920797,3.04940376 26.9472292,8.39859624 26.9472292,14.9972024 C26.9472292,21.5957754 21.5920797,26.9450011 14.9861993,26.9450011 M14.9861993,0.0275674779 C6.70955482,0.0275674779 1.99335548e-05,6.7297135 1.99335548e-05,14.9972024 C1.99335548e-05,23.2646914 6.70955482,29.9668374 14.9861993,29.9668374 C23.2628439,29.9668374 29.972412,23.2646914 29.972412,14.9972024 C29.972412,6.7297135 23.2628439,0.0275674779 14.9861993,0.0275674779" id="Fill-1" fill="#002449" mask="url(#mask-2)"></path>
                        </g>
                        <path d="M18.4070024,15.1126593 L16.478097,17.0884911 L16.478097,9.79313015 C16.478097,8.95693057 15.8163356,8.27906977 15.0000285,8.27906977 C14.1836888,8.27906977 13.5219274,8.95693057 13.5219274,9.79313015 L13.5219274,17.0884911 L11.5930221,15.1126593 C11.0157803,14.5213744 10.079908,14.5213744 9.50269877,15.1126593 L9.50269877,15.1126593 C8.925457,15.7039442 8.925457,16.6625845 9.50269877,17.2538694 L12.9096726,20.7437282 L13.9127699,21.7712288 C14.5132342,22.3863346 15.4867902,22.3863346 16.087222,21.7712288 L17.0903518,20.7437282 L20.4973257,17.2538694 C21.0745349,16.6625845 21.0745349,15.7039442 20.4973257,15.1126593 L20.4973257,15.1126593 C19.9200839,14.5213744 18.9842441,14.5213744 18.4070024,15.1126593" id="Fill-6" fill="#002449"></path>
                    </g>
                </g>
            </g>
        </g>
    </g>
</svg>